<svg width="23" height="22" viewBox="0 0 23 22" fill="none" xmlns="http://www.w3.org/2000/svg">
<path fill-rule="evenodd" clip-rule="evenodd" d="M11.4664 0.143188C5.47257 0.143188 0.609619 5.00614 0.609619 11C0.609619 16.9939 5.47257 21.8568 11.4664 21.8568C17.4485 21.8568 22.3233 16.9939 22.3233 11C22.3233 5.00614 17.4485 0.143188 11.4664 0.143188ZM18.6374 5.14728C19.9741 6.7752 20.7138 8.81136 20.7336 10.9177C20.4278 10.8589 17.3662 10.2346 14.2811 10.6236C14.2096 10.4698 14.1508 10.3052 14.0802 10.1405C13.8883 9.6876 13.6844 9.2399 13.4686 8.79788C16.8831 7.40821 18.4374 5.40694 18.6374 5.14728V5.14728ZM11.4664 1.74547C13.8215 1.74547 15.9765 2.62759 17.6132 4.07607C17.4485 4.3113 16.0471 6.1841 12.7503 7.41997C11.2303 4.62977 9.54749 2.34441 9.28784 1.99156C10.002 1.82481 10.7331 1.74192 11.4664 1.74457V1.74547ZM7.52179 2.61583C7.76879 2.94606 9.41721 5.24227 10.9598 7.97367C6.62611 9.12811 2.79908 9.10459 2.38742 9.10459C2.98817 6.23115 4.93154 3.84084 7.52179 2.61583ZM2.18748 11.0118V10.7295C2.58827 10.7413 7.08571 10.8001 11.7143 9.41039C11.9849 9.9288 12.2318 10.4581 12.4671 10.9882C12.3495 11.0235 12.2201 11.0588 12.1025 11.0941C7.32185 12.6367 4.77773 16.8518 4.56602 17.2056C3.03468 15.5061 2.1873 13.2994 2.18748 11.0118V11.0118ZM11.4664 20.279C9.32312 20.279 7.34537 19.5488 5.77927 18.3247C5.94394 17.9828 7.82759 14.3557 13.0561 12.5308C13.0796 12.5191 13.0922 12.5191 13.1149 12.5073C14.4222 15.8865 14.9515 18.7246 15.0935 19.5371C13.9744 20.0202 12.7503 20.279 11.4664 20.279ZM16.6361 18.6893C16.542 18.1239 16.0471 15.416 14.8339 12.083C17.7426 11.6243 20.2858 12.3779 20.6043 12.4838C20.2035 15.0623 18.7197 17.2879 16.6361 18.6893Z" fill="#959595"/>
</svg>
