<svg width="30" height="18" viewBox="0 0 30 18" fill="none" xmlns="http://www.w3.org/2000/svg">
<path d="M18.9678 1.19067H26.2042V2.92648H18.9678V1.19067ZM11.7169 8.05858C13.3165 7.30185 14.1544 6.15063 14.1544 4.37179C14.1544 0.853556 11.5065 0 8.44871 0H0.0334473V17.6593H8.68448C11.9273 17.6593 14.9705 16.1172 14.9705 12.5308C14.9705 10.3144 13.9114 8.67543 11.7169 8.05858V8.05858ZM3.95815 3.01255H7.63983C9.05809 3.01255 10.3313 3.40347 10.3313 5.03168C10.3313 6.53078 9.34101 7.13329 7.93726 7.13329H3.95815V3.01255ZM8.14764 14.6611H3.95452V9.79797H8.23107C9.95765 9.79797 11.0495 10.5117 11.0495 12.3192C11.0495 14.098 9.74727 14.6611 8.14764 14.6611V14.6611ZM29.0334 11.4513C29.0334 7.66766 26.7954 4.51524 22.7474 4.51524C18.8118 4.51524 16.1349 7.44531 16.1349 11.2863C16.1349 15.2672 18.6703 18 22.7474 18C25.8342 18 27.8328 16.6264 28.794 13.6964H25.6637C25.3228 14.7902 23.9371 15.364 22.8598 15.364C20.7778 15.364 19.6896 14.159 19.6896 12.1112H29.0081C29.0189 11.8996 29.0334 11.6772 29.0334 11.4513V11.4513ZM19.6896 9.8948C19.8021 8.21279 20.9374 7.16198 22.6349 7.16198C24.4196 7.16198 25.3119 8.19845 25.4678 9.8948H19.6896Z" fill="#959595"/>
</svg>
